<svg xmlns="http://www.w3.org/2000/svg" version="1.1" xmlns:xlink="http://www.w3.org/1999/xlink" xmlns:svgjs="http://svgjs.dev/svgjs" width="128" height="128" viewBox="0 0 128 128"><g transform="matrix(0.8046875,0,0,0.8046875,12.333870967741937,12.333870967741937)"><svg viewBox="0 0 155 155" data-background-color="#7a26c1" preserveAspectRatio="xMidYMid meet" height="128" width="128" xmlns="http://www.w3.org/2000/svg" xmlns:xlink="http://www.w3.org/1999/xlink"><g id="tight-bounds" transform="matrix(1,0,0,1,0.25,0.25)"><svg viewBox="0 0 154.5 154.5" height="154.5" width="154.5"><g><svg></svg></g><g><svg viewBox="0 0 154.5 154.5" height="154.5" width="154.5"><g transform="matrix(1,0,0,1,45.109947540983605,43.83165)"><svg viewBox="0 0 64.28010491803279 66.8367" height="66.8367" width="64.28010491803279"><g><svg viewBox="0 0 64.28010491803279 66.8367" height="66.8367" width="64.28010491803279"><g><svg viewBox="0 0 64.28010491803279 66.8367" height="66.8367" width="64.28010491803279"><g id="textblocktransform"><svg viewBox="0 0 64.28010491803279 66.8367" height="66.8367" width="64.28010491803279" id="textblock"><g><svg viewBox="0 0 64.28010491803279 66.8367" height="66.8367" width="64.28010491803279"><g transform="matrix(1,0,0,1,0,0)"><svg width="64.28010491803279" viewBox="1.45 -35.8 35.199999999999996 36.6" height="66.8367" data-palette-color="#ffffff"><path d="M20.95 0.8Q15.4 0.8 10.95-1.53 6.5-3.85 3.98-8.03 1.45-12.2 1.45-17.5L1.45-17.5Q1.45-22.8 3.98-26.98 6.5-31.15 10.95-33.48 15.4-35.8 20.95-35.8L20.95-35.8Q26.05-35.8 30.05-34 34.05-32.2 36.65-28.8L36.65-28.8 29.2-22.15Q25.95-26.25 21.55-26.25L21.55-26.25Q17.85-26.25 15.6-23.88 13.35-21.5 13.35-17.5L13.35-17.5Q13.35-13.5 15.6-11.13 17.85-8.75 21.55-8.75L21.55-8.75Q25.95-8.75 29.2-12.85L29.2-12.85 36.65-6.2Q34.05-2.8 30.05-1 26.05 0.8 20.95 0.8L20.95 0.8Z" opacity="1" transform="matrix(1,0,0,1,0,0)" fill="#ffffff" class="undefined-text-0" data-fill-palette-color="primary" id="text-0"></path></svg></g></svg></g></svg></g></svg></g><g></g></svg></g></svg></g><g><path d="M0 154.5v-154.5h154.5v154.5zM148.473 148.473v-142.446h-142.446v142.446z" fill="#ffffff" fill-rule="nonzero" stroke="none" stroke-width="1" stroke-linecap="butt" stroke-linejoin="miter" stroke-miterlimit="10" stroke-dasharray="" stroke-dashoffset="0" font-family="none" font-weight="none" font-size="none" text-anchor="none" style="mix-blend-mode: normal" data-fill-palette-color="tertiary"></path></g></svg></g><defs></defs></svg><rect width="154.5" height="154.5" fill="none" stroke="none" visibility="hidden"></rect></g></svg></g></svg>